<svg xmlns="http://www.w3.org/2000/svg" viewBox="0 0 64 64" width="64" height="64">
  <rect x="1.5" y="1.5" width="61" height="61" fill="#ffffff" stroke="#dedcd2" stroke-width="1"/>
  <g transform="translate(-14.2 -16) scale(0.42)" fill="none" stroke-linecap="round" stroke-linejoin="round">
    <path d="M122 72 L82 72 C58 72 56 100 84 110 C106 119 118 124 118 142 C118 164 92 172 70 164" stroke="#1c242c" stroke-width="13"/>
    <path d="M70 165 L120 165" stroke="#1c242c" stroke-width="13"/>
    <path d="M120 165 C133 165 139 157 139 145 L139 112" stroke="#5a7d3c" stroke-width="12"/>
    <path d="M127 126 L139 110 L151 126" stroke="#5a7d3c" stroke-width="12"/>
    <path d="M120 94 C120 70 142 55 160 57 C158 81 140 96 120 94 Z" fill="#3e5a30" stroke="none"/>
  </g>
</svg>
